<svg xmlns="http://www.w3.org/2000/svg" viewBox="0 0 512 512">
  <defs>
    <linearGradient id="grad" x1="0%" y1="0%" x2="100%" y2="100%">
      <stop offset="0%" style="stop-color:#0A84FF;stop-opacity:1" />
      <stop offset="100%" style="stop-color:#30D158;stop-opacity:1" />
    </linearGradient>
  </defs>
  <rect width="512" height="512" rx="128" fill="url(#grad)" />
  <path d="M368 144H144C126.3 144 112 158.3 112 176V336C112 353.7 126.3 368 144 368H368C385.7 368 400 353.7 400 336V176C400 158.3 385.7 144 368 144ZM176 320H160V192H176V320ZM264 320H248V192H264V320ZM352 320H336V192H352V320Z" fill="white" />
  <path d="M144 112H368C385.7 112 400 126.3 400 144V176H112V144C112 126.3 126.3 112 144 112Z" fill="rgba(255,255,255,0.2)"/>
</svg>
